<svg xmlns="http://www.w3.org/2000/svg" viewBox="0 0 128 128" role="img" aria-labelledby="title desc">
  <title id="title">aq mark</title>
  <desc id="desc">Rounded square icon with an abstract lowercase a and q monogram.</desc>
  <defs>
    <linearGradient id="bg" x1="16" y1="16" x2="112" y2="112" gradientUnits="userSpaceOnUse">
      <stop offset="0" stop-color="#12313a" />
      <stop offset="1" stop-color="#1f5f63" />
    </linearGradient>
    <linearGradient id="accent" x1="28" y1="28" x2="104" y2="100" gradientUnits="userSpaceOnUse">
      <stop offset="0" stop-color="#f7f3e8" />
      <stop offset="1" stop-color="#d7efe6" />
    </linearGradient>
  </defs>
  <rect x="8" y="8" width="112" height="112" rx="28" fill="url(#bg)" />
  <path
    d="M48 42c-12.15 0-22 9.85-22 22s9.85 22 22 22c7.11 0 13.43-3.37 17.46-8.6V86h12V42H65v8.6C61.43 45.37 55.11 42 48 42zm0 12c5.52 0 10 4.48 10 10s-4.48 10-10 10-10-4.48-10-10 4.48-10 10-10z"
    fill="url(#accent)"
  />
  <path
    d="M88 38c-7.18 0-13 5.82-13 13v24c0 7.18 5.82 13 13 13h2v14h12V51c0-7.18-5.82-13-13-13h-1zm1 12h1v26h-1c-.55 0-1-.45-1-1V51c0-.55.45-1 1-1z"
    fill="#8fe0c1"
  />
  <circle cx="98" cy="98" r="4" fill="#f7f3e8" />
</svg>
